STARTFONT 2.1
FONT -TakWolf-Retro Pixel Cute Mono-Regular-R-Normal-Sans Serif-11-110-75-75-M-60-ISO10646-1
SIZE 11 75 75
FONTBOUNDINGBOX 11 15 0 -4
STARTPROPERTIES 22
FOUNDRY "TakWolf"
FAMILY_NAME "Retro Pixel Cute Mono"
WEIGHT_NAME "Regular"
SLANT "R"
SETWIDTH_NAME "Normal"
ADD_STYLE_NAME "Sans Serif"
PIXEL_SIZE 11
POINT_SIZE 110
RESOLUTION_X 75
RESOLUTION_Y 75
SPACING "M"
AVERAGE_WIDTH 60
CHARSET_REGISTRY "ISO10646"
CHARSET_ENCODING "1"
DEFAULT_CHAR 65534
FONT_ASCENT 11
FONT_DESCENT 4
X_HEIGHT 5
CAP_HEIGHT 7
FONT_VERSION "2024.05.12"
COPYRIGHT "Copyright (c) 2023, TakWolf (https://takwolf.com), with Reserved Font Name 'Retro Pixel Cute Mono'."
LICENSE "This Font Software is licensed under the SIL Open Font License, Version 1.1."
ENDPROPERTIES
CHARS 112
STARTCHAR uni0020
ENCODING 32
SWIDTH 546 0
DWIDTH 6 0
BBX 6 15 0 -4
BITMAP
00
00
00
00
00
00
00
00
00
00
00
00
00
00
00
ENDCHAR
STARTCHAR uni0021
ENCODING 33
SWIDTH 546 0
DWIDTH 6 0
BBX 6 15 0 -4
BITMAP
00
00
00
00
20
20
20
20
20
00
20
00
00
00
00
ENDCHAR
STARTCHAR uni0022
ENCODING 34
SWIDTH 546 0
DWIDTH 6 0
BBX 6 15 0 -4
BITMAP
00
00
00
00
50
50
00
00
00
00
00
00
00
00
00
ENDCHAR
STARTCHAR uni0023
ENCODING 35
SWIDTH 546 0
DWIDTH 6 0
BBX 6 15 0 -4
BITMAP
00
00
00
00
50
F8
50
50
50
F8
50
00
00
00
00
ENDCHAR
STARTCHAR uni0024
ENCODING 36
SWIDTH 546 0
DWIDTH 6 0
BBX 6 15 0 -4
BITMAP
00
00
00
20
70
A8
A0
70
28
A8
70
20
00
00
00
ENDCHAR
STARTCHAR uni0025
ENCODING 37
SWIDTH 546 0
DWIDTH 6 0
BBX 6 15 0 -4
BITMAP
00
00
00
40
A8
50
10
20
40
50
A8
10
00
00
00
ENDCHAR
STARTCHAR uni0026
ENCODING 38
SWIDTH 546 0
DWIDTH 6 0
BBX 6 15 0 -4
BITMAP
00
00
00
00
60
90
90
60
A8
90
68
00
00
00
00
ENDCHAR
STARTCHAR uni0027
ENCODING 39
SWIDTH 546 0
DWIDTH 6 0
BBX 6 15 0 -4
BITMAP
00
00
00
00
20
20
00
00
00
00
00
00
00
00
00
ENDCHAR
STARTCHAR uni0028
ENCODING 40
SWIDTH 546 0
DWIDTH 6 0
BBX 6 15 0 -4
BITMAP
00
00
00
00
10
20
20
40
40
40
20
20
10
00
00
ENDCHAR
STARTCHAR uni0029
ENCODING 41
SWIDTH 546 0
DWIDTH 6 0
BBX 6 15 0 -4
BITMAP
00
00
00
00
40
20
20
10
10
10
20
20
40
00
00
ENDCHAR
STARTCHAR uni002A
ENCODING 42
SWIDTH 546 0
DWIDTH 6 0
BBX 6 15 0 -4
BITMAP
00
00
00
00
00
20
A8
70
A8
20
00
00
00
00
00
ENDCHAR
STARTCHAR uni002B
ENCODING 43
SWIDTH 546 0
DWIDTH 6 0
BBX 6 15 0 -4
BITMAP
00
00
00
00
00
20
20
F8
20
20
00
00
00
00
00
ENDCHAR
STARTCHAR uni002C
ENCODING 44
SWIDTH 546 0
DWIDTH 6 0
BBX 6 15 0 -4
BITMAP
00
00
00
00
00
00
00
00
00
00
20
20
40
00
00
ENDCHAR
STARTCHAR uni002D
ENCODING 45
SWIDTH 546 0
DWIDTH 6 0
BBX 6 15 0 -4
BITMAP
00
00
00
00
00
00
00
F8
00
00
00
00
00
00
00
ENDCHAR
STARTCHAR uni002E
ENCODING 46
SWIDTH 546 0
DWIDTH 6 0
BBX 6 15 0 -4
BITMAP
00
00
00
00
00
00
00
00
00
00
20
00
00
00
00
ENDCHAR
STARTCHAR uni002F
ENCODING 47
SWIDTH 546 0
DWIDTH 6 0
BBX 6 15 0 -4
BITMAP
00
00
00
00
08
08
10
10
20
40
40
80
80
00
00
ENDCHAR
STARTCHAR uni0030
ENCODING 48
SWIDTH 546 0
DWIDTH 6 0
BBX 6 15 0 -4
BITMAP
00
00
00
00
70
88
98
A8
C8
88
70
00
00
00
00
ENDCHAR
STARTCHAR uni0031
ENCODING 49
SWIDTH 546 0
DWIDTH 6 0
BBX 6 15 0 -4
BITMAP
00
00
00
00
20
E0
20
20
20
20
F8
00
00
00
00
ENDCHAR
STARTCHAR uni0032
ENCODING 50
SWIDTH 546 0
DWIDTH 6 0
BBX 6 15 0 -4
BITMAP
00
00
00
00
70
88
08
30
40
80
F8
00
00
00
00
ENDCHAR
STARTCHAR uni0033
ENCODING 51
SWIDTH 546 0
DWIDTH 6 0
BBX 6 15 0 -4
BITMAP
00
00
00
00
70
88
08
30
08
88
70
00
00
00
00
ENDCHAR
STARTCHAR uni0034
ENCODING 52
SWIDTH 546 0
DWIDTH 6 0
BBX 6 15 0 -4
BITMAP
00
00
00
00
30
50
50
90
90
F8
10
00
00
00
00
ENDCHAR
STARTCHAR uni0035
ENCODING 53
SWIDTH 546 0
DWIDTH 6 0
BBX 6 15 0 -4
BITMAP
00
00
00
00
F8
80
80
F0
08
88
70
00
00
00
00
ENDCHAR
STARTCHAR uni0036
ENCODING 54
SWIDTH 546 0
DWIDTH 6 0
BBX 6 15 0 -4
BITMAP
00
00
00
00
70
88
80
F0
88
88
70
00
00
00
00
ENDCHAR
STARTCHAR uni0037
ENCODING 55
SWIDTH 546 0
DWIDTH 6 0
BBX 6 15 0 -4
BITMAP
00
00
00
00
F8
08
10
10
20
20
20
00
00
00
00
ENDCHAR
STARTCHAR uni0038
ENCODING 56
SWIDTH 546 0
DWIDTH 6 0
BBX 6 15 0 -4
BITMAP
00
00
00
00
70
88
88
70
88
88
70
00
00
00
00
ENDCHAR
STARTCHAR uni0039
ENCODING 57
SWIDTH 546 0
DWIDTH 6 0
BBX 6 15 0 -4
BITMAP
00
00
00
00
70
88
88
78
08
88
70
00
00
00
00
ENDCHAR
STARTCHAR uni003A
ENCODING 58
SWIDTH 546 0
DWIDTH 6 0
BBX 6 15 0 -4
BITMAP
00
00
00
00
00
00
20
00
00
00
20
00
00
00
00
ENDCHAR
STARTCHAR uni003B
ENCODING 59
SWIDTH 546 0
DWIDTH 6 0
BBX 6 15 0 -4
BITMAP
00
00
00
00
00
00
20
00
00
00
20
20
40
00
00
ENDCHAR
STARTCHAR uni003C
ENCODING 60
SWIDTH 546 0
DWIDTH 6 0
BBX 6 15 0 -4
BITMAP
00
00
00
00
00
18
60
80
60
18
00
00
00
00
00
ENDCHAR
STARTCHAR uni003D
ENCODING 61
SWIDTH 546 0
DWIDTH 6 0
BBX 6 15 0 -4
BITMAP
00
00
00
00
00
00
F8
00
F8
00
00
00
00
00
00
ENDCHAR
STARTCHAR uni003E
ENCODING 62
SWIDTH 546 0
DWIDTH 6 0
BBX 6 15 0 -4
BITMAP
00
00
00
00
00
C0
30
08
30
C0
00
00
00
00
00
ENDCHAR
STARTCHAR uni003F
ENCODING 63
SWIDTH 546 0
DWIDTH 6 0
BBX 6 15 0 -4
BITMAP
00
00
00
00
70
88
08
10
20
00
20
00
00
00
00
ENDCHAR
STARTCHAR uni0040
ENCODING 64
SWIDTH 546 0
DWIDTH 6 0
BBX 6 15 0 -4
BITMAP
00
00
00
00
70
88
98
A8
A8
B8
80
70
00
00
00
ENDCHAR
STARTCHAR uni0041
ENCODING 65
SWIDTH 546 0
DWIDTH 6 0
BBX 6 15 0 -4
BITMAP
00
00
00
00
70
88
88
88
F8
88
88
00
00
00
00
ENDCHAR
STARTCHAR uni0042
ENCODING 66
SWIDTH 546 0
DWIDTH 6 0
BBX 6 15 0 -4
BITMAP
00
00
00
00
F0
88
88
F0
88
88
F0
00
00
00
00
ENDCHAR
STARTCHAR uni0043
ENCODING 67
SWIDTH 546 0
DWIDTH 6 0
BBX 6 15 0 -4
BITMAP
00
00
00
00
70
88
80
80
80
88
70
00
00
00
00
ENDCHAR
STARTCHAR uni0044
ENCODING 68
SWIDTH 546 0
DWIDTH 6 0
BBX 6 15 0 -4
BITMAP
00
00
00
00
F0
88
88
88
88
88
F0
00
00
00
00
ENDCHAR
STARTCHAR uni0045
ENCODING 69
SWIDTH 546 0
DWIDTH 6 0
BBX 6 15 0 -4
BITMAP
00
00
00
00
F8
80
80
F0
80
80
F8
00
00
00
00
ENDCHAR
STARTCHAR uni0046
ENCODING 70
SWIDTH 546 0
DWIDTH 6 0
BBX 6 15 0 -4
BITMAP
00
00
00
00
F8
80
80
F0
80
80
80
00
00
00
00
ENDCHAR
STARTCHAR uni0047
ENCODING 71
SWIDTH 546 0
DWIDTH 6 0
BBX 6 15 0 -4
BITMAP
00
00
00
00
70
88
80
80
98
88
78
00
00
00
00
ENDCHAR
STARTCHAR uni0048
ENCODING 72
SWIDTH 546 0
DWIDTH 6 0
BBX 6 15 0 -4
BITMAP
00
00
00
00
88
88
88
F8
88
88
88
00
00
00
00
ENDCHAR
STARTCHAR uni0049
ENCODING 73
SWIDTH 546 0
DWIDTH 6 0
BBX 6 15 0 -4
BITMAP
00
00
00
00
F8
20
20
20
20
20
F8
00
00
00
00
ENDCHAR
STARTCHAR uni004A
ENCODING 74
SWIDTH 546 0
DWIDTH 6 0
BBX 6 15 0 -4
BITMAP
00
00
00
00
08
08
08
08
88
88
70
00
00
00
00
ENDCHAR
STARTCHAR uni004B
ENCODING 75
SWIDTH 546 0
DWIDTH 6 0
BBX 6 15 0 -4
BITMAP
00
00
00
00
88
90
A0
C0
A0
90
88
00
00
00
00
ENDCHAR
STARTCHAR uni004C
ENCODING 76
SWIDTH 546 0
DWIDTH 6 0
BBX 6 15 0 -4
BITMAP
00
00
00
00
80
80
80
80
80
80
F8
00
00
00
00
ENDCHAR
STARTCHAR uni004D
ENCODING 77
SWIDTH 546 0
DWIDTH 6 0
BBX 6 15 0 -4
BITMAP
00
00
00
00
88
D8
A8
88
88
88
88
00
00
00
00
ENDCHAR
STARTCHAR uni004E
ENCODING 78
SWIDTH 546 0
DWIDTH 6 0
BBX 6 15 0 -4
BITMAP
00
00
00
00
88
88
C8
A8
98
88
88
00
00
00
00
ENDCHAR
STARTCHAR uni004F
ENCODING 79
SWIDTH 546 0
DWIDTH 6 0
BBX 6 15 0 -4
BITMAP
00
00
00
00
70
88
88
88
88
88
70
00
00
00
00
ENDCHAR
STARTCHAR uni0050
ENCODING 80
SWIDTH 546 0
DWIDTH 6 0
BBX 6 15 0 -4
BITMAP
00
00
00
00
F0
88
88
88
F0
80
80
00
00
00
00
ENDCHAR
STARTCHAR uni0051
ENCODING 81
SWIDTH 546 0
DWIDTH 6 0
BBX 6 15 0 -4
BITMAP
00
00
00
00
70
88
88
88
A8
90
68
00
00
00
00
ENDCHAR
STARTCHAR uni0052
ENCODING 82
SWIDTH 546 0
DWIDTH 6 0
BBX 6 15 0 -4
BITMAP
00
00
00
00
F0
88
88
F0
88
88
88
00
00
00
00
ENDCHAR
STARTCHAR uni0053
ENCODING 83
SWIDTH 546 0
DWIDTH 6 0
BBX 6 15 0 -4
BITMAP
00
00
00
00
70
88
80
70
08
88
70
00
00
00
00
ENDCHAR
STARTCHAR uni0054
ENCODING 84
SWIDTH 546 0
DWIDTH 6 0
BBX 6 15 0 -4
BITMAP
00
00
00
00
F8
20
20
20
20
20
20
00
00
00
00
ENDCHAR
STARTCHAR uni0055
ENCODING 85
SWIDTH 546 0
DWIDTH 6 0
BBX 6 15 0 -4
BITMAP
00
00
00
00
88
88
88
88
88
88
70
00
00
00
00
ENDCHAR
STARTCHAR uni0056
ENCODING 86
SWIDTH 546 0
DWIDTH 6 0
BBX 6 15 0 -4
BITMAP
00
00
00
00
88
88
88
50
50
20
20
00
00
00
00
ENDCHAR
STARTCHAR uni0057
ENCODING 87
SWIDTH 546 0
DWIDTH 6 0
BBX 6 15 0 -4
BITMAP
00
00
00
00
A8
A8
A8
A8
50
50
50
00
00
00
00
ENDCHAR
STARTCHAR uni0058
ENCODING 88
SWIDTH 546 0
DWIDTH 6 0
BBX 6 15 0 -4
BITMAP
00
00
00
00
88
88
50
20
50
88
88
00
00
00
00
ENDCHAR
STARTCHAR uni0059
ENCODING 89
SWIDTH 546 0
DWIDTH 6 0
BBX 6 15 0 -4
BITMAP
00
00
00
00
88
88
50
50
20
20
20
00
00
00
00
ENDCHAR
STARTCHAR uni005A
ENCODING 90
SWIDTH 546 0
DWIDTH 6 0
BBX 6 15 0 -4
BITMAP
00
00
00
00
F8
08
10
20
40
80
F8
00
00
00
00
ENDCHAR
STARTCHAR uni005B
ENCODING 91
SWIDTH 546 0
DWIDTH 6 0
BBX 6 15 0 -4
BITMAP
00
00
00
00
70
40
40
40
40
40
40
40
70
00
00
ENDCHAR
STARTCHAR uni005C
ENCODING 92
SWIDTH 546 0
DWIDTH 6 0
BBX 6 15 0 -4
BITMAP
00
00
00
00
80
80
40
40
20
10
10
08
08
00
00
ENDCHAR
STARTCHAR uni005D
ENCODING 93
SWIDTH 546 0
DWIDTH 6 0
BBX 6 15 0 -4
BITMAP
00
00
00
00
70
10
10
10
10
10
10
10
70
00
00
ENDCHAR
STARTCHAR uni005E
ENCODING 94
SWIDTH 546 0
DWIDTH 6 0
BBX 6 15 0 -4
BITMAP
00
00
00
00
20
50
88
00
00
00
00
00
00
00
00
ENDCHAR
STARTCHAR uni005F
ENCODING 95
SWIDTH 546 0
DWIDTH 6 0
BBX 6 15 0 -4
BITMAP
00
00
00
00
00
00
00
00
00
00
00
00
F8
00
00
ENDCHAR
STARTCHAR uni0060
ENCODING 96
SWIDTH 546 0
DWIDTH 6 0
BBX 6 15 0 -4
BITMAP
00
00
00
00
20
10
00
00
00
00
00
00
00
00
00
ENDCHAR
STARTCHAR uni0061
ENCODING 97
SWIDTH 546 0
DWIDTH 6 0
BBX 6 15 0 -4
BITMAP
00
00
00
00
00
00
70
08
78
88
78
00
00
00
00
ENDCHAR
STARTCHAR uni0062
ENCODING 98
SWIDTH 546 0
DWIDTH 6 0
BBX 6 15 0 -4
BITMAP
00
00
00
00
80
80
F0
88
88
88
F0
00
00
00
00
ENDCHAR
STARTCHAR uni0063
ENCODING 99
SWIDTH 546 0
DWIDTH 6 0
BBX 6 15 0 -4
BITMAP
00
00
00
00
00
00
70
88
80
88
70
00
00
00
00
ENDCHAR
STARTCHAR uni0064
ENCODING 100
SWIDTH 546 0
DWIDTH 6 0
BBX 6 15 0 -4
BITMAP
00
00
00
00
08
08
78
88
88
88
78
00
00
00
00
ENDCHAR
STARTCHAR uni0065
ENCODING 101
SWIDTH 546 0
DWIDTH 6 0
BBX 6 15 0 -4
BITMAP
00
00
00
00
00
00
70
88
F8
80
70
00
00
00
00
ENDCHAR
STARTCHAR uni0066
ENCODING 102
SWIDTH 546 0
DWIDTH 6 0
BBX 6 15 0 -4
BITMAP
00
00
00
00
18
20
F8
20
20
20
20
00
00
00
00
ENDCHAR
STARTCHAR uni0067
ENCODING 103
SWIDTH 546 0
DWIDTH 6 0
BBX 6 15 0 -4
BITMAP
00
00
00
00
00
00
78
88
88
88
78
08
70
00
00
ENDCHAR
STARTCHAR uni0068
ENCODING 104
SWIDTH 546 0
DWIDTH 6 0
BBX 6 15 0 -4
BITMAP
00
00
00
00
80
80
F0
88
88
88
88
00
00
00
00
ENDCHAR
STARTCHAR uni0069
ENCODING 105
SWIDTH 546 0
DWIDTH 6 0
BBX 6 15 0 -4
BITMAP
00
00
00
00
20
00
E0
20
20
20
F8
00
00
00
00
ENDCHAR
STARTCHAR uni006A
ENCODING 106
SWIDTH 546 0
DWIDTH 6 0
BBX 6 15 0 -4
BITMAP
00
00
00
00
08
00
38
08
08
08
08
88
70
00
00
ENDCHAR
STARTCHAR uni006B
ENCODING 107
SWIDTH 546 0
DWIDTH 6 0
BBX 6 15 0 -4
BITMAP
00
00
00
00
80
80
88
90
E0
90
88
00
00
00
00
ENDCHAR
STARTCHAR uni006C
ENCODING 108
SWIDTH 546 0
DWIDTH 6 0
BBX 6 15 0 -4
BITMAP
00
00
00
00
E0
20
20
20
20
20
18
00
00
00
00
ENDCHAR
STARTCHAR uni006D
ENCODING 109
SWIDTH 546 0
DWIDTH 6 0
BBX 6 15 0 -4
BITMAP
00
00
00
00
00
00
D0
A8
A8
A8
A8
00
00
00
00
ENDCHAR
STARTCHAR uni006E
ENCODING 110
SWIDTH 546 0
DWIDTH 6 0
BBX 6 15 0 -4
BITMAP
00
00
00
00
00
00
F0
88
88
88
88
00
00
00
00
ENDCHAR
STARTCHAR uni006F
ENCODING 111
SWIDTH 546 0
DWIDTH 6 0
BBX 6 15 0 -4
BITMAP
00
00
00
00
00
00
70
88
88
88
70
00
00
00
00
ENDCHAR
STARTCHAR uni0070
ENCODING 112
SWIDTH 546 0
DWIDTH 6 0
BBX 6 15 0 -4
BITMAP
00
00
00
00
00
00
F0
88
88
88
F0
80
80
00
00
ENDCHAR
STARTCHAR uni0071
ENCODING 113
SWIDTH 546 0
DWIDTH 6 0
BBX 6 15 0 -4
BITMAP
00
00
00
00
00
00
78
88
88
88
78
08
08
00
00
ENDCHAR
STARTCHAR uni0072
ENCODING 114
SWIDTH 546 0
DWIDTH 6 0
BBX 6 15 0 -4
BITMAP
00
00
00
00
00
00
B0
C8
80
80
80
00
00
00
00
ENDCHAR
STARTCHAR uni0073
ENCODING 115
SWIDTH 546 0
DWIDTH 6 0
BBX 6 15 0 -4
BITMAP
00
00
00
00
00
00
78
80
70
08
F0
00
00
00
00
ENDCHAR
STARTCHAR uni0074
ENCODING 116
SWIDTH 546 0
DWIDTH 6 0
BBX 6 15 0 -4
BITMAP
00
00
00
00
20
20
F8
20
20
20
18
00
00
00
00
ENDCHAR
STARTCHAR uni0075
ENCODING 117
SWIDTH 546 0
DWIDTH 6 0
BBX 6 15 0 -4
BITMAP
00
00
00
00
00
00
88
88
88
88
78
00
00
00
00
ENDCHAR
STARTCHAR uni0076
ENCODING 118
SWIDTH 546 0
DWIDTH 6 0
BBX 6 15 0 -4
BITMAP
00
00
00
00
00
00
88
88
50
50
20
00
00
00
00
ENDCHAR
STARTCHAR uni0077
ENCODING 119
SWIDTH 546 0
DWIDTH 6 0
BBX 6 15 0 -4
BITMAP
00
00
00
00
00
00
A8
A8
A8
50
50
00
00
00
00
ENDCHAR
STARTCHAR uni0078
ENCODING 120
SWIDTH 546 0
DWIDTH 6 0
BBX 6 15 0 -4
BITMAP
00
00
00
00
00
00
88
50
20
50
88
00
00
00
00
ENDCHAR
STARTCHAR uni0079
ENCODING 121
SWIDTH 546 0
DWIDTH 6 0
BBX 6 15 0 -4
BITMAP
00
00
00
00
00
00
88
88
88
88
78
08
70
00
00
ENDCHAR
STARTCHAR uni007A
ENCODING 122
SWIDTH 546 0
DWIDTH 6 0
BBX 6 15 0 -4
BITMAP
00
00
00
00
00
00
F8
10
20
40
F8
00
00
00
00
ENDCHAR
STARTCHAR uni007B
ENCODING 123
SWIDTH 546 0
DWIDTH 6 0
BBX 6 15 0 -4
BITMAP
00
00
00
00
30
40
40
40
80
40
40
40
30
00
00
ENDCHAR
STARTCHAR uni007C
ENCODING 124
SWIDTH 546 0
DWIDTH 6 0
BBX 6 15 0 -4
BITMAP
00
00
00
00
20
20
20
20
20
20
20
20
20
00
00
ENDCHAR
STARTCHAR uni007D
ENCODING 125
SWIDTH 546 0
DWIDTH 6 0
BBX 6 15 0 -4
BITMAP
00
00
00
00
60
10
10
10
08
10
10
10
60
00
00
ENDCHAR
STARTCHAR uni007E
ENCODING 126
SWIDTH 546 0
DWIDTH 6 0
BBX 6 15 0 -4
BITMAP
00
00
00
00
00
00
40
A8
10
00
00
00
00
00
00
ENDCHAR
STARTCHAR uni00A1
ENCODING 161
SWIDTH 546 0
DWIDTH 6 0
BBX 6 15 0 -4
BITMAP
00
00
00
00
00
00
20
00
20
20
20
20
20
00
00
ENDCHAR
STARTCHAR uni00A6
ENCODING 166
SWIDTH 546 0
DWIDTH 6 0
BBX 6 15 0 -4
BITMAP
00
00
00
00
20
20
20
20
00
20
20
20
20
00
00
ENDCHAR
STARTCHAR uni00A9
ENCODING 169
SWIDTH 546 0
DWIDTH 6 0
BBX 6 15 0 -4
BITMAP
00
00
00
00
70
D8
A8
B8
A8
D8
70
00
00
00
00
ENDCHAR
STARTCHAR uni00B1
ENCODING 177
SWIDTH 546 0
DWIDTH 6 0
BBX 6 15 0 -4
BITMAP
00
00
00
00
00
20
20
F8
20
20
F8
00
00
00
00
ENDCHAR
STARTCHAR uni00B6
ENCODING 182
SWIDTH 546 0
DWIDTH 6 0
BBX 6 15 0 -4
BITMAP
00
00
00
00
78
E8
E8
E8
68
28
28
28
28
00
00
ENDCHAR
STARTCHAR uni00B7
ENCODING 183
SWIDTH 546 0
DWIDTH 6 0
BBX 6 15 0 -4
BITMAP
00
00
00
00
00
00
00
20
00
00
00
00
00
00
00
ENDCHAR
STARTCHAR uni00BF
ENCODING 191
SWIDTH 546 0
DWIDTH 6 0
BBX 6 15 0 -4
BITMAP
00
00
00
00
00
00
20
00
20
40
80
88
70
00
00
ENDCHAR
STARTCHAR uni00D7
ENCODING 215
SWIDTH 546 0
DWIDTH 6 0
BBX 6 15 0 -4
BITMAP
00
00
00
00
00
88
50
20
50
88
00
00
00
00
00
ENDCHAR
STARTCHAR uni00F7
ENCODING 247
SWIDTH 546 0
DWIDTH 6 0
BBX 6 15 0 -4
BITMAP
00
00
00
00
00
20
00
F8
00
20
00
00
00
00
00
ENDCHAR
STARTCHAR uni2018
ENCODING 8216
SWIDTH 546 0
DWIDTH 6 0
BBX 6 15 0 -4
BITMAP
00
00
00
00
10
20
20
00
00
00
00
00
00
00
00
ENDCHAR
STARTCHAR uni2019
ENCODING 8217
SWIDTH 546 0
DWIDTH 6 0
BBX 6 15 0 -4
BITMAP
00
00
00
00
20
20
40
00
00
00
00
00
00
00
00
ENDCHAR
STARTCHAR uni201C
ENCODING 8220
SWIDTH 546 0
DWIDTH 6 0
BBX 6 15 0 -4
BITMAP
00
00
00
00
28
50
50
00
00
00
00
00
00
00
00
ENDCHAR
STARTCHAR uni201D
ENCODING 8221
SWIDTH 546 0
DWIDTH 6 0
BBX 6 15 0 -4
BITMAP
00
00
00
00
50
50
A0
00
00
00
00
00
00
00
00
ENDCHAR
STARTCHAR uni204B
ENCODING 8267
SWIDTH 546 0
DWIDTH 6 0
BBX 6 15 0 -4
BITMAP
00
00
00
00
F0
B8
B8
B8
B0
A0
A0
A0
A0
00
00
ENDCHAR
STARTCHAR uni204C
ENCODING 8268
SWIDTH 546 0
DWIDTH 6 0
BBX 6 15 0 -4
BITMAP
00
00
00
00
00
78
E8
E8
E8
78
00
00
00
00
00
ENDCHAR
STARTCHAR uni204D
ENCODING 8269
SWIDTH 546 0
DWIDTH 6 0
BBX 6 15 0 -4
BITMAP
00
00
00
00
00
F0
B8
B8
B8
F0
00
00
00
00
00
ENDCHAR
STARTCHAR .notdef
ENCODING 65534
SWIDTH 546 0
DWIDTH 6 0
BBX 6 15 0 -4
BITMAP
00
00
F8
88
88
88
88
88
88
88
88
88
F8
00
00
ENDCHAR
ENDFONT
